<?xml version="1.0" encoding="UTF-8" standalone="no"?>
<svg
   width="88.75"
   height="88.378662"
   viewBox="0.32101717 0.30000004 88.750003 88.378665"
   version="1.1"
   xml:space="preserve"
   id="svg10"
   sodipodi:docname="run1.svg"
   inkscape:version="1.3 (0e150ed6c4, 2023-07-21)"
   xmlns:inkscape="http://www.inkscape.org/namespaces/inkscape"
   xmlns:sodipodi="http://sodipodi.sourceforge.net/DTD/sodipodi-0.dtd"
   xmlns="http://www.w3.org/2000/svg"
   xmlns:svg="http://www.w3.org/2000/svg"><defs
   id="defs10" /><sodipodi:namedview
   id="namedview10"
   pagecolor="#ffffff"
   bordercolor="#000000"
   borderopacity="0.25"
   inkscape:showpageshadow="2"
   inkscape:pageopacity="0.0"
   inkscape:pagecheckerboard="0"
   inkscape:deskcolor="#d1d1d1"
   inkscape:zoom="1.3464789"
   inkscape:cx="15.596235"
   inkscape:cy="42.703976"
   inkscape:window-width="1024"
   inkscape:window-height="577"
   inkscape:window-x="-8"
   inkscape:window-y="-8"
   inkscape:window-maximized="1"
   inkscape:current-layer="svg10" />&#10;  <!-- Generator: Sketch 52.5 (67469) - http://www.bohemiancoding.com/sketch -->&#10;  <rect
   style="display:inline;opacity:1;fill:#00cccc;fill-opacity:1;stroke:none;stroke-width:2.51591;stroke-opacity:1"
   id="rect2"
   width="88.75"
   height="88.378662"
   x="0.32101718"
   y="0.30000004" /><path
   id="rect3"
   style="opacity:1;fill:#ffffff;fill-opacity:1;stroke:none;stroke-width:2.51591;stroke-opacity:1"
   d="m 26.310551,74.720709 c -3.15954,-0.02285 -6.191803,2.299615 -9.685547,4.818359 -2.199996,1.699998 -4.800389,3.698836 -3.900391,6.798828 0.175362,0.613766 0.477327,1.433021 0.876954,2.339844 h 30.863281 c 0.04746,-0.09884 0.09798,-0.194254 0.144531,-0.292969 0.03707,0.04933 0.07966,0.106871 0.115234,0.154297 0.02691,0.03588 0.08589,0.09862 0.117188,0.138672 h 18.841797 c 1.757284,-2.066372 2.722335,-4.414845 0.841797,-6.138672 -3.599994,-3.299992 -6.900786,0.798442 -9.300782,2.898438 -1.999996,1.799996 -8.099609,-5.39883 -8.599609,-5.798828 -0.124722,-0.110049 -0.261296,-0.204611 -0.402344,-0.291016 -0.372466,-0.753802 -1.026531,-1.241443 -2.097656,-1.208984 -2.199996,0.1 -4.199617,-0.201174 -7.599609,-0.701172 -2.86709,-0.573419 -4.610967,-1.047523 -5.927735,-0.947266 -0.385275,-0.517682 -1.044514,-0.981572 -2.072265,-1.351562 -0.75,-0.28125 -1.48572,-0.412696 -2.214844,-0.417969 z" />&#10;<g
   id="head-6"
   transform="translate(-6.9753094,18.938287)">&#10;            <path
   id="path3-7"
   style="display:inline;fill:#ffffff;fill-opacity:1;stroke:#ffffff;stroke-opacity:1"
   d="m 61.953304,0.90609673 c -0.09063,0.0124999 -0.178906,0.0437502 -0.253906,0.09375 L 53.099789,8.9998467 c -2.299988,-0.3999976 -4.700018,-0.5984363 -7.5,-0.3984375 -4.699972,0.1999988 -9.201172,1.8984378 -9.201172,1.8984378 L 24.299007,2.6014092 c -0.399998,-0.1999988 -0.898828,0.1000024 -0.798828,0.5 l 2.09961,17.8984378 c 0.599994,-0.799994 -10.599958,12.801238 -3.5,24.201172 7.099958,11.399928 22.200112,16.498804 41,12.798828 18.799886,-3.699982 23.199992,-14.499255 22,-20.199219 -1.199994,-5.699964 -8.300782,-7.800781 -8.300782,-7.800781 0,0 -0.09885,-4.500036 -3.298828,-10 -1.899988,-3.299982 -8.300781,-8 -8.300781,-8 L 62.599789,1.300628 C 62.524789,1.0006298 62.225175,0.86859691 61.953304,0.90609673 Z M 63.398617,15.515472 c 0.780878,0.0083 1.610982,0.216289 2.447265,0.564453 -2.257443,-0.376043 -4.527493,0.156566 -6.224609,1.671875 0.333623,-0.637596 0.787718,-1.170733 1.378906,-1.550781 0.699998,-0.475 1.518755,-0.694922 2.398438,-0.685547 z M 73.61932,28.427581 c -0.115372,1.7424 -0.785036,3.179052 -2.019531,3.972656 -0.976306,0.627627 -2.173439,0.770589 -3.44336,0.513672 1.321428,-0.216741 2.561473,-0.779129 3.589844,-1.705078 0.864163,-0.778096 1.487051,-1.731475 1.873047,-2.78125 z m -13.957031,9.271484 h 2 c -0.216726,0.109269 -0.437273,0.18712 -0.66211,0.201172 -0.362295,0.04026 -0.834954,-0.05199 -1.33789,-0.201172 z m -14.011719,2.78125 c 0.04922,5.85e-4 0.09844,0.007 0.148437,0.01953 1.89999,0.699994 7.300818,2.301172 13.300782,2.701172 5.399968,0.299994 8.599621,-7.82e-4 10.099609,-0.300782 0.5,-0.1 0.899219,0.400395 0.699219,0.900391 -0.899994,2.699982 -4.699279,10.199609 -15.199219,9.599609 -9.099942,-0.999994 -9.999217,-7.398858 -9.699219,-12.298828 0,-0.349994 0.305863,-0.625198 0.650391,-0.621094 z" />&#10;            &#10;            &#10;            <path
   d="m 71,26.7 c 0,1.1 -0.8,2 -1.8,2 -1,0 -1.8,-0.9 -1.8,-2 0,-1.1 0.8,-2 1.8,-2 1,0 1.8,0.9 1.8,2"
   id="path7-0"
   fill="#001026"
   stroke-width="1"
   style="display:inline;fill:#ffffff;fill-opacity:1;stroke:#ffffff;stroke-opacity:1" /><path
   d="m 46,29.6 c 0,1.1 -0.8,2 -1.8,2 -1,0 -1.8,-0.9 -1.8,-2 0,-1.1 0.8,-2 1.8,-2 1,0.1 1.8,0.9 1.8,2"
   id="path9-2"
   fill="#001026"
   stroke-width="1"
   style="display:inline;fill:#ffffff;fill-opacity:1;stroke:#ffffff;stroke-opacity:1" /><path
   d="m 81.700314,35.4 c 0,0 7.2,-0.1 11.9,-3.9"
   id="whisker-5"
   stroke="#001026"
   stroke-width="1.2"
   stroke-linecap="round"
   stroke-linejoin="round"
   fill="none"
   style="fill:#ffffff;fill-opacity:1;stroke:#ffffff;stroke-opacity:1" />&#10;            <path
   d="m 82.100314,41.3 c 0,0 3.9,1.9 10.2,1.4"
   id="path4-5"
   stroke="#001026"
   stroke-width="1.2"
   stroke-linecap="round"
   stroke-linejoin="round"
   fill="none"
   style="fill:#ffffff;fill-opacity:1;stroke:#ffffff;stroke-opacity:1" />&#10;            &#10;            <path
   d="m 9.7423391,32.119017 c 0,0 8.5999999,2.8 12.0999999,5.9"
   id="path5-7"
   stroke="#001026"
   stroke-width="1.2"
   stroke-linecap="round"
   stroke-linejoin="round"
   fill="none"
   style="fill:#ffffff;fill-opacity:1;stroke:#ffffff;stroke-opacity:1" />&#10;            <path
   d="m 10.442339,42.119017 c 0,0 7.4,1.1 11.7,-0.6"
   id="path6-4"
   stroke="#001026"
   stroke-width="1.2"
   stroke-linecap="round"
   stroke-linejoin="round"
   fill="none"
   style="display:inline;fill:#ffffff;fill-opacity:1;stroke:#ffffff;stroke-opacity:1" />&#10;            &#10;            &#10;          </g></svg>
