<?xml version="1.0" encoding="UTF-8" standalone="no"?>
<!-- Generator: Adobe Illustrator 19.1.0, SVG Export Plug-In . SVG Version: 6.00 Build 0)  -->

<svg
   version="1.1"
   id="Layer_1"
   x="0px"
   y="0px"
   width="18.050781"
   height="15.800781"
   viewBox="0 0 18.050781 15.800781"
   xml:space="preserve"
   sodipodi:docname="love_type-gray.svg"
   inkscape:export-filename="heart.svg"
   inkscape:export-xdpi="96"
   inkscape:export-ydpi="96"
   xmlns:inkscape="http://www.inkscape.org/namespaces/inkscape"
   xmlns:sodipodi="http://sodipodi.sourceforge.net/DTD/sodipodi-0.dtd"
   xmlns="http://www.w3.org/2000/svg"
   xmlns:svg="http://www.w3.org/2000/svg"><defs
   id="defs1" /><sodipodi:namedview
   id="namedview1"
   pagecolor="#ffffff"
   bordercolor="#000000"
   borderopacity="0.25"
   inkscape:showpageshadow="2"
   inkscape:pageopacity="0.0"
   inkscape:pagecheckerboard="0"
   inkscape:deskcolor="#d1d1d1" />&#10;&#10;<path
   id="path6"
   style="display:inline;fill:#fc6680;stroke-width:2.5"
   d="M 5.6503906,2.5e-8 C 5.2753914,2.5e-8 4.9062494,0.03164102 4.5468751,0.09570302 4.1875007,0.15976553 3.8374994,0.25742213 3.5,0.38867182 3.3312504,0.45429672 3.1660153,0.52832052 3.0039063,0.61132812 2.8417973,0.69433573 2.6839841,0.78593773 2.5292968,0.88671873 2.3746098,0.98749983 2.2226561,1.0978519 2.0761718,1.2167968 1.9296879,1.3357419 1.7878902,1.4621097 1.6503906,1.5996094 1.5128908,1.7371091 1.3839841,1.8803226 1.2636719,2.0273437 1.1433595,2.174365 1.0328121,2.3251956 0.92968745,2.4804687 0.82656275,2.6357419 0.73046855,2.7947757 0.64453125,2.9570312 0.55859395,3.1192868 0.48281235,3.2851565 0.41406245,3.453125 0.27656275,3.7890617 0.17226545,4.135157 0.10351565,4.4863281 0.03476565,4.8374992 -5e-8,5.194532 5e-8,5.5507812 c 0,0.3562494 0.034766,0.7113289 0.1035156,1.0625 0.06875,0.3511714 0.1730471,0.6972664 0.3105468,1.0332034 0.06875,0.167968 0.1445315,0.333838 0.2304688,0.496094 0.085937,0.162254 0.1820315,0.321289 0.2851562,0.476562 0.10312465,0.155273 0.21367205,0.308057 0.33398435,0.455078 0.1203123,0.147021 0.249219,0.288283 0.3867188,0.425781 L 7.1503906,15 c 0.1249998,0.125 0.2632817,0.2375 0.4101562,0.335938 0.1468749,0.09844 0.302344,0.183203 0.4648439,0.251953 0.1624996,0.06875 0.3320316,0.122266 0.5039066,0.158203 0.171873,0.03594 0.346484,0.05469 0.521484,0.05469 0.175,0 0.349611,-0.01836 0.5214839,-0.05273 0.171875,-0.03438 0.341407,-0.08594 0.5039068,-0.148437 0.162498,-0.0625 0.31797,-0.136328 0.464843,-0.220703 0.146875,-0.08437 0.285157,-0.179297 0.410157,-0.279297 l 5.5,-5.5000004 c 0.249998,-0.275 0.475,-0.56758 0.671875,-0.876953 0.196873,-0.309375 0.364453,-0.635157 0.501953,-0.972657 0.1375,-0.337498 0.244531,-0.6875 0.316406,-1.0468746 0.03594,-0.1796871 0.06367,-0.3609379 0.08203,-0.5449219 0.01836,-0.183998 0.02735,-0.3711011 0.02735,-0.5586007 0,-0.3749994 -0.03164,-0.7421882 -0.0957,-1.1015626 C 17.891015,4.1386726 17.795312,3.7886712 17.664062,3.4511718 17.598437,3.2824222 17.524414,3.115234 17.441406,2.953125 17.358398,2.7910159 17.264843,2.6332027 17.164062,2.4785156 17.063281,2.3238285 16.954882,2.1738279 16.835937,2.0273437 16.716992,1.8808597 16.58867,1.7371091 16.451172,1.5996094 16.176172,1.3496099 15.88164,1.1246091 15.572265,0.92773442 15.262892,0.73085973 14.939062,0.56328103 14.601562,0.42578123 14.264064,0.28828163 13.914062,0.18124983 13.554687,0.10937502 13.375,0.07343802 13.191796,0.04570302 13.007812,0.02734402 12.823828,0.00898502 12.63867,2.5e-8 12.451172,2.5e-8 c -0.325,0 -0.637892,0.025780995 -0.939453,0.074218995 -0.301563,0.048437 -0.591799,0.1191407 -0.873047,0.2128907 -0.28125,0.09375 -0.554298,0.2097658 -0.8183597,0.3457031 -0.264061,0.1359365 -0.519531,0.2917969 -0.769531,0.46679658 C 8.8007813,0.92460972 8.5374983,0.76874962 8.2656252,0.63281252 7.9937502,0.49687523 7.7132806,0.38085923 7.4257812,0.28710943 7.1382818,0.19335943 6.8437495,0.12265623 6.5468751,0.07421873 6.2500004,0.02578142 5.95039,2.5e-8 5.6503906,2.5e-8 Z M 8.4511723,2.7011718 c 0.0375,0.0375 0.07939,0.069727 0.125,0.097656 -0.04561,-0.02793 -0.0875,-0.060156 -0.125,-0.097656 z m 1.199218,0 c -0.0375,0.0375 -0.07939,0.069727 -0.125,0.097656 0.04561,-0.02793 0.0875,-0.060156 0.125,-0.097656 z" /></svg>
