<?xml version="1.0" encoding="UTF-8" standalone="no"?>
<svg
   version="1.1"
   width="54.818378"
   height="81.941559"
   viewBox="-0.5 -0.5000997 54.818378 81.941559"
   id="svg1"
   sodipodi:docname="scratch_blue_favicon.svg"
   xmlns:inkscape="http://www.inkscape.org/namespaces/inkscape"
   xmlns:sodipodi="http://sodipodi.sourceforge.net/DTD/sodipodi-0.dtd"
   xmlns="http://www.w3.org/2000/svg"
   xmlns:svg="http://www.w3.org/2000/svg">
  <defs
     id="defs1" />
  <sodipodi:namedview
     id="namedview1"
     pagecolor="#ffffff"
     bordercolor="#000000"
     borderopacity="0.25"
     inkscape:showpageshadow="2"
     inkscape:pageopacity="0.0"
     inkscape:pagecheckerboard="0"
     inkscape:deskcolor="#d1d1d1" />
  <!-- Exported by Scratch - http://scratch.mit.edu/ -->
  <g
     id="ID0.9805312547832727"
     transform="translate(-0.5,-0.49984509)">
    <path
       id="ID0.1519448710605502"
       d="m 38.347656,0.00185342 c -0.800468,-0.01437498 -1.599219,0.04468764 -2.386718,0.1796875 -1.259999,0.1999998 -2.400705,0.52046921 -3.470704,0.98046878 -0.839999,0.3499996 -1.631094,0.7695317 -2.371093,1.2695312 -1.659999,-0.3599996 -3.398752,-0.5488281 -5.21875,-0.5488281 -3.939996,0 -7.72977,0.900158 -11.259766,2.6601562 C 11.480627,5.632868 8.5090605,7.8416235 6.5390625,12.261619 6.1690629,13.061618 5.900546,13.921544 5.0605469,16.681541 3.0505489,23.101535 2.640625,25.681855 2.640625,27.751853 v 5.09961 c 0,2.089998 0.3588288,4.130549 1.0488281,6.060547 C 1.6794551,41.062008 0.48937462,43.751544 0.109375,46.431541 0.03937507,46.94154 0,47.462323 0,47.982322 c 0,1.139999 0.17992211,2.159064 0.41992188,3.039063 -0.05,0.819999 -0.0798438,1.570235 -0.0898438,2.240234 -0.15999983,0.789999 -0.24023437,1.581095 -0.24023437,2.371094 v 4.839844 c 0,0.799999 0.08976579,1.589141 0.25976563,2.36914 -0.01,0.31 -0.0403125,0.729532 -0.0703125,1.269531 -0.0699999,1.259999 -0.0996094,2.171095 -0.0996094,2.871094 0,10.27999 6.74953746,14.958985 13.01953156,14.958985 3.049997,0 6.141409,-1.028674 9.441406,-3.138672 1.259999,-0.81 2.328438,-1.850783 3.148437,-3.050782 0.63,-0.02 1.260392,-0.07039 1.900391,-0.15039 14.079986,-1.779998 22.859847,-7.219931 26.089844,-16.169922 1.039999,-2.799997 1.270312,-6.108756 0.820312,-11.71875 -0.05,-0.649999 -0.160078,-1.289923 -0.330078,-1.919922 -0.439999,-1.669998 -0.939297,-3.04047 -1.529297,-4.230469 -0.629999,-1.499998 -1.550392,-3.230939 -2.90039,-4.960937 0.04,-0.13 0.08109,-0.269922 0.121094,-0.419922 0.179999,-0.659999 0.289843,-1.339532 0.339843,-2.019531 0.12,-1.779999 0.14836,-3.290627 0.06836,-4.640625 0.309999,-3.489997 0.541172,-6.12844 0.701171,-7.898438 0.01,-0.06 0.0095,-0.121641 0.01953,-0.18164 0.18,-2.439998 0.301094,-4.308986 0.371094,-5.708985 C 51.890937,7.7923301 48.389841,3.9321641 45.339844,2.0721659 43.164846,0.75216724 40.74906,0.04497838 38.347656,0.00185342 Z M 38.191406,10.9999 c 0.456328,0.01116 0.939063,0.169813 1.445313,0.476563 0.672999,0.410999 0.950984,1.644314 0.833984,3.695312 -0.059,1.289999 -0.175563,3.108128 -0.351562,5.453125 -0.176,1.935998 -0.439969,4.89677 -0.792969,8.884766 0.117,0.937999 0.117,2.228142 0,3.869141 -0.294,1.113998 -1.173673,1.671875 -2.638672,1.671875 -0.762999,0 -1.495219,-0.205235 -2.199219,-0.615235 -0.351999,-1.112999 -0.52539,-1.584203 -0.52539,-1.408203 0.116,-1.582998 -0.206751,-3.694987 -0.96875,-6.333984 -0.646,-1.347999 -1.539595,-3.266768 -2.683594,-5.759766 -1.143999,-2.491997 -2.653299,-3.827906 -4.529297,-4.003906 -2.345998,-0.176 -3.870219,0.616002 -4.574219,2.375 -0.234,0.762999 -0.557797,1.878751 -0.966797,3.34375 -0.703999,2.169998 -1.144312,4.251142 -1.320312,6.24414 -0.059,0.646 -0.117781,0.910969 -0.175781,0.792969 0.175999,1.173999 0.380234,2.344579 0.615234,3.517578 0.293,1.465999 1.013251,2.582751 2.15625,3.34375 1.143999,0.763 3.326738,1.23025 6.552734,1.40625 7.915992,0.471 12.812455,3.227537 14.689453,8.269532 0.292,0.469999 0.584907,1.260048 0.878907,2.373046 0.292999,3.636997 0.233218,5.981111 -0.175781,7.03711 -1.701999,4.808995 -7.420354,7.828548 -17.152344,9.060547 -3.284997,0.410999 -6.568519,-1.143113 -9.853516,-4.66211 0,0.528 0.117516,2.110003 0.353516,4.75 0.176,1.934998 0.146109,3.519002 -0.08789,4.75 -1.466998,0.937999 -2.639532,1.408203 -3.519531,1.408203 -1.349999,0 -2.023438,-1.318987 -2.023438,-3.958984 0,-0.468999 0.02889,-1.216188 0.08789,-2.242187 0.058,-1.024999 0.08789,-1.743298 0.08789,-2.154297 0,-0.996999 -0.08767,-1.700329 -0.263672,-2.111328 v -4.837891 c 0,-0.117 0.02889,-0.249485 0.08789,-0.396484 0.058,-0.146 0.116782,-0.278485 0.175782,-0.396485 -0.059,-0.819999 -0.03011,-2.080252 0.08789,-3.78125 0.117,-1.055999 0.117,-1.729438 0,-2.023437 -0.293999,-0.585 -0.4375,-0.936688 -0.4375,-1.054688 0.233,-1.641998 1.436471,-2.46289 3.605469,-2.46289 1.406999,0 2.256782,0.498141 2.550781,1.49414 0,0.937999 0.116563,2.317768 0.351563,4.134766 0.352999,2.110998 1.466752,4.222033 3.34375,6.332031 2.051998,2.404998 4.01458,3.51975 5.892578,3.34375 2.110998,-0.233 4.222986,-0.733094 6.333984,-1.496094 2.931997,-1.055999 4.690345,-2.28636 5.277344,-3.693359 0.409,-1.055999 0.615234,-2.167798 0.615234,-3.341797 0,-3.575996 -1.318034,-6.244908 -3.957031,-8.003906 -1.173999,-0.761999 -3.342769,-1.37961 -6.509766,-1.84961 -1.817998,-0.232999 -2.93475,-0.351562 -3.34375,-0.351562 -2.814997,0.059 -5.438096,-0.849564 -7.871093,-2.726563 -2.433997,-1.875998 -3.65039,-4.046768 -3.65039,-6.509765 V 27.7499 c 0,-1.112999 0.644548,-3.723129 1.935547,-7.828125 0.584999,-1.935998 0.90875,-2.960125 0.96875,-3.078125 0.526999,-1.230998 1.200485,-2.051891 2.021484,-2.46289 1.992998,-0.995999 4.103034,-1.496094 6.332032,-1.496094 4.338995,0 7.534892,1.759347 9.58789,5.277344 0.176,0.175999 0.46986,0.439016 0.88086,0.791015 0.058,-0.819999 0.175562,-2.080251 0.351562,-3.78125 -0.059,-0.761999 -0.117781,-1.495219 -0.175781,-2.199218 0,-0.82 0.408469,-1.375923 1.230469,-1.669922 0.233999,-0.117 0.55775,-0.204672 0.96875,-0.263672 0.146499,-0.02925 0.295156,-0.04278 0.447265,-0.03906 z"
       style="fill:#ffffff;fill-opacity:1" />
  </g>
</svg>
