<?xml version="1.0" encoding="UTF-8" standalone="no"?>
<svg
   width="85.028496"
   height="59.287663"
   viewBox="0.32101717 0.30000004 85.028498 59.287664"
   version="1.1"
   xml:space="preserve"
   id="svg10"
   sodipodi:docname="scratch_head.svg"
   inkscape:export-filename="scratch_head.svg"
   inkscape:export-xdpi="96"
   inkscape:export-ydpi="96"
   inkscape:version="1.3 (0e150ed6c4, 2023-07-21)"
   xmlns:inkscape="http://www.inkscape.org/namespaces/inkscape"
   xmlns:sodipodi="http://sodipodi.sourceforge.net/DTD/sodipodi-0.dtd"
   xmlns="http://www.w3.org/2000/svg"
   xmlns:svg="http://www.w3.org/2000/svg"><defs
   id="defs10" /><sodipodi:namedview
   id="namedview10"
   pagecolor="#ffffff"
   bordercolor="#000000"
   borderopacity="0.25"
   inkscape:showpageshadow="2"
   inkscape:pageopacity="0.0"
   inkscape:pagecheckerboard="0"
   inkscape:deskcolor="#d1d1d1"
   inkscape:zoom="2.4487383"
   inkscape:cx="74.119803"
   inkscape:cy="45.533653"
   inkscape:window-width="1024"
   inkscape:window-height="577"
   inkscape:window-x="-8"
   inkscape:window-y="-8"
   inkscape:window-maximized="1"
   inkscape:current-layer="svg10" />&#10;  <!-- Generator: Sketch 52.5 (67469) - http://www.bohemiancoding.com/sketch -->&#10;  &#10;<g
   id="head-6"
   transform="translate(-8.850799,-0.1008652)">&#10;            <path
   id="path3-7"
   style="display:inline;fill:#ffb300;fill-opacity:1;stroke:#ffb300;stroke-opacity:1"
   d="m 61.953304,0.90609673 c -0.09063,0.0124999 -0.178906,0.0437502 -0.253906,0.09375 L 53.099789,8.9998467 c -2.299988,-0.3999976 -4.700018,-0.5984363 -7.5,-0.3984375 -4.699972,0.1999988 -9.201172,1.8984378 -9.201172,1.8984378 L 24.299007,2.6014092 c -0.399998,-0.1999988 -0.898828,0.1000024 -0.798828,0.5 l 2.09961,17.8984378 c 0.599994,-0.799994 -10.599958,12.801238 -3.5,24.201172 7.099958,11.399928 22.200112,16.498804 41,12.798828 18.799886,-3.699982 23.199992,-14.499255 22,-20.199219 -1.199994,-5.699964 -8.300782,-7.800781 -8.300782,-7.800781 0,0 -0.09885,-4.500036 -3.298828,-10 -1.899988,-3.299982 -8.300781,-8 -8.300781,-8 L 62.599789,1.300628 C 62.524789,1.0006298 62.225175,0.86859691 61.953304,0.90609673 Z M 63.398617,15.515472 c 0.780878,0.0083 1.610982,0.216289 2.447265,0.564453 -2.257443,-0.376043 -4.527493,0.156566 -6.224609,1.671875 0.333623,-0.637596 0.787718,-1.170733 1.378906,-1.550781 0.699998,-0.475 1.518755,-0.694922 2.398438,-0.685547 z M 73.61932,28.427581 c -0.115372,1.7424 -0.785036,3.179052 -2.019531,3.972656 -0.976306,0.627627 -2.173439,0.770589 -3.44336,0.513672 1.321428,-0.216741 2.561473,-0.779129 3.589844,-1.705078 0.864163,-0.778096 1.487051,-1.731475 1.873047,-2.78125 z m -13.957031,9.271484 h 2 c -0.216726,0.109269 -0.437273,0.18712 -0.66211,0.201172 -0.362295,0.04026 -0.834954,-0.05199 -1.33789,-0.201172 z m -14.011719,2.78125 c 0.04922,5.85e-4 0.09844,0.007 0.148437,0.01953 1.89999,0.699994 7.300818,2.301172 13.300782,2.701172 5.399968,0.299994 8.599621,-7.82e-4 10.099609,-0.300782 0.5,-0.1 0.899219,0.400395 0.699219,0.900391 -0.899994,2.699982 -4.699279,10.199609 -15.199219,9.599609 -9.099942,-0.999994 -9.999217,-7.398858 -9.699219,-12.298828 0,-0.349994 0.305863,-0.625198 0.650391,-0.621094 z" />&#10;            &#10;            &#10;            <path
   d="m 81.700314,35.4 c 0,0 7.2,-0.1 11.9,-3.9"
   id="whisker-5"
   stroke="#001026"
   stroke-width="1.2"
   stroke-linecap="round"
   stroke-linejoin="round"
   fill="none"
   style="fill:#ffb300;fill-opacity:1;stroke:#ffb300;stroke-opacity:1" />&#10;            <path
   d="m 82.100314,41.3 c 0,0 3.9,1.9 10.2,1.4"
   id="path4-5"
   stroke="#001026"
   stroke-width="1.2"
   stroke-linecap="round"
   stroke-linejoin="round"
   fill="none"
   style="fill:#ffb300;fill-opacity:1;stroke:#ffb300;stroke-opacity:1" />&#10;            &#10;            <path
   d="m 9.7423391,32.119017 c 0,0 8.5999999,2.8 12.0999999,5.9"
   id="path5-7"
   stroke="#001026"
   stroke-width="1.2"
   stroke-linecap="round"
   stroke-linejoin="round"
   fill="none"
   style="fill:#ffb300;fill-opacity:1;stroke:#ffb300;stroke-opacity:1" />&#10;            <path
   d="m 10.442339,42.119017 c 0,0 7.4,1.1 11.7,-0.6"
   id="path6-4"
   stroke="#001026"
   stroke-width="1.2"
   stroke-linecap="round"
   stroke-linejoin="round"
   fill="none"
   style="display:inline;fill:#ffb300;fill-opacity:1;stroke:#ffb300;stroke-opacity:1" />&#10;            &#10;            &#10;          </g></svg>
