<?xml version="1.0" encoding="UTF-8" standalone="no"?>
<!-- Created with Inkscape (http://www.inkscape.org/) -->

<svg
   width="93.278687"
   height="93.830193"
   viewBox="0 0 24.679985 24.825905"
   version="1.1"
   id="svg1"
   inkscape:version="1.3 (0e150ed6c4, 2023-07-21)"
   sodipodi:docname="settings.svg"
   xml:space="preserve"
   inkscape:export-filename="studio.png"
   inkscape:export-xdpi="50"
   inkscape:export-ydpi="50"
   xmlns:inkscape="http://www.inkscape.org/namespaces/inkscape"
   xmlns:sodipodi="http://sodipodi.sourceforge.net/DTD/sodipodi-0.dtd"
   xmlns="http://www.w3.org/2000/svg"
   xmlns:svg="http://www.w3.org/2000/svg"><sodipodi:namedview
     id="namedview1"
     pagecolor="#ffffff"
     bordercolor="#000000"
     borderopacity="0.25"
     inkscape:showpageshadow="2"
     inkscape:pageopacity="0.0"
     inkscape:pagecheckerboard="0"
     inkscape:deskcolor="#d1d1d1"
     inkscape:document-units="mm"
     inkscape:zoom="2.1333333"
     inkscape:cx="36.562501"
     inkscape:cy="30.703125"
     inkscape:window-width="1024"
     inkscape:window-height="577"
     inkscape:window-x="-8"
     inkscape:window-y="-8"
     inkscape:window-maximized="1"
     inkscape:current-layer="layer1"
     showgrid="false" /><defs
     id="defs1" /><g
     inkscape:label="Capa 1"
     inkscape:groupmode="layer"
     id="layer1"
     transform="translate(-191.70284,28.089476)"><g
       id="g98"
       inkscape:label="Preferencias"
       transform="matrix(0.7236168,0,0,0.72789479,56.394004,0.51899365)"
       inkscape:export-filename="proyect\assets\settings.svg"
       inkscape:export-xdpi="50"
       inkscape:export-ydpi="50"><path
         id="path97"
         style="fill:#fdfdfd;fill-opacity:1;stroke:none;stroke-width:1.85208;stroke-dasharray:none"
         d="m 204.04284,-39.303027 c -1.71772,0 -3.10058,1.496122 -3.10058,3.354317 v 1.71049 a 12.272902,12.412953 0 0 0 -2.83911,1.161686 l -1.19682,-1.270723 c -1.27415,-1.352572 -3.30651,-1.493048 -4.55683,-0.315227 -1.25032,1.177821 -1.23125,3.214594 0.0429,4.567163 l 1.23248,1.308448 a 12.272902,12.412953 0 0 0 -1.44332,3.436482 h -1.83761 c -1.8582,0 -3.35432,1.382867 -3.35432,3.100586 0,1.717721 1.49612,3.100586 3.35432,3.100586 h 1.83761 a 12.272902,12.412953 0 0 0 1.44332,3.437 l -1.23248,1.30793 c -1.27414,1.352572 -1.29321,3.389859 -0.0429,4.5676801 1.25032,1.1778208 3.28268,1.0368281 4.55683,-0.3157431 l 1.19682,-1.270723 a 12.272902,12.412953 0 0 0 2.83911,1.162203 v 1.7099727 c 0,1.8581953 1.38286,3.3543173 3.10058,3.3543173 1.71773,0 3.10059,-1.496122 3.10059,-3.3543173 v -1.7099727 a 12.272902,12.412953 0 0 0 2.8391,-1.162203 l 1.19683,1.270723 c 1.27414,1.3525712 3.3065,1.4935639 4.55683,0.3157431 1.2503,-1.1778211 1.23073,-3.2151081 -0.0434,-4.5676801 l -1.23197,-1.307413 a 12.272902,12.412953 0 0 0 1.44281,-3.437517 h 1.83813 c 1.8582,0 3.35432,-1.382865 3.35432,-3.100586 0,-1.717719 -1.49612,-3.100586 -3.35432,-3.100586 h -1.81695 a 12.272902,12.412953 0 0 0 -1.45727,-3.444234 l 1.22525,-1.300696 c 1.27414,-1.352569 1.29371,-3.389342 0.0434,-4.567163 -1.25033,-1.177821 -3.28269,-1.037345 -4.55683,0.315227 l -1.17719,1.250052 a 12.272902,12.412953 0 0 0 -2.85874,-1.160652 v -1.690853 c 0,-1.858195 -1.38286,-3.354317 -3.10059,-3.354317 z m 0,8.784993 a 8.175169,8.2684593 0 0 1 8.17521,8.268229 8.175169,8.2684593 0 0 1 -8.17521,8.268229 8.175169,8.2684593 0 0 1 -8.17521,-8.268229 8.175169,8.2684593 0 0 1 8.17521,-8.268229 z" /></g></g><style
     id="style1">.st0{fill:#575757}</style></svg>
