<?xml version="1.0" encoding="UTF-8" standalone="no"?>
<!-- Created with Inkscape (http://www.inkscape.org/) -->

<svg
   width="89.522278"
   height="90.33004"
   viewBox="0 0 23.686102 23.899823"
   version="1.1"
   id="svg1"
   inkscape:version="1.3 (0e150ed6c4, 2023-07-21)"
   sodipodi:docname="advertisement.svg"
   xml:space="preserve"
   inkscape:export-filename="studio.png"
   inkscape:export-xdpi="50"
   inkscape:export-ydpi="50"
   xmlns:inkscape="http://www.inkscape.org/namespaces/inkscape"
   xmlns:sodipodi="http://sodipodi.sourceforge.net/DTD/sodipodi-0.dtd"
   xmlns="http://www.w3.org/2000/svg"
   xmlns:svg="http://www.w3.org/2000/svg"><sodipodi:namedview
     id="namedview1"
     pagecolor="#ffffff"
     bordercolor="#000000"
     borderopacity="0.25"
     inkscape:showpageshadow="2"
     inkscape:pageopacity="0.0"
     inkscape:pagecheckerboard="0"
     inkscape:deskcolor="#d1d1d1"
     inkscape:document-units="mm"
     inkscape:zoom="0.18856181"
     inkscape:cx="259.86173"
     inkscape:cy="225.39028"
     inkscape:window-width="1024"
     inkscape:window-height="577"
     inkscape:window-x="-8"
     inkscape:window-y="-8"
     inkscape:window-maximized="1"
     inkscape:current-layer="layer1"
     showgrid="false" /><defs
     id="defs1" /><g
     inkscape:label="Capa 1"
     inkscape:groupmode="layer"
     id="layer1"
     transform="translate(-192.62959,27.163433)"><g
       id="g100"
       inkscape:label="Caja de herramientas"
       style="display:inline"><rect
         style="display:inline;fill:none;fill-opacity:1;stroke:#ffffff;stroke-width:1.852;stroke-dasharray:none;stroke-opacity:1"
         id="rect96"
         width="21.767719"
         height="17.172199"
         x="193.62196"
         y="-21.361811"
         ry="2.7210433" /><rect
         style="display:inline;fill:none;fill-opacity:1;stroke:#ffffff;stroke-width:1.80784;stroke-dasharray:none;stroke-opacity:1"
         id="rect96-4"
         width="21.780205"
         height="5.293859"
         x="193.53351"
         y="-21.367292"
         ry="0.83884543" /><path
         d="m 197.86096,-26.237395 c -0.0597,0 -0.11914,0.0018 -0.17725,0.0055 -0.0581,0.0037 -0.11534,0.0091 -0.17156,0.01629 -0.0562,0.0072 -0.11131,0.01616 -0.16537,0.02671 -0.0541,0.01055 -0.10704,0.02277 -0.15865,0.03649 -0.0516,0.01372 -0.10202,0.02891 -0.15089,0.04561 -0.0489,0.01669 -0.0963,0.03491 -0.14211,0.05441 -0.0459,0.0195 -0.0897,0.04043 -0.13229,0.06255 -0.0426,0.02211 -0.0835,0.04548 -0.12248,0.07004 -0.039,0.02456 -0.076,0.05038 -0.1111,0.07721 -0.0351,0.02682 -0.0683,0.05449 -0.0992,0.0834 -0.0309,0.0289 -0.0598,0.0591 -0.0863,0.08991 -0.0265,0.03081 -0.0506,0.06227 -0.0724,0.0948 -0.0217,0.03254 -0.0411,0.06593 -0.0579,0.100015 -0.0168,0.03408 -0.0309,0.06913 -0.0424,0.104575 -0.0115,0.03545 -0.02,0.07153 -0.0258,0.108159 -0.006,0.03663 -0.009,0.07378 -0.009,0.111417 v 3.782962 h 16.5747 v -3.782962 c 0,-0.03764 -0.003,-0.07478 -0.009,-0.111417 -0.006,-0.03663 -0.0149,-0.07271 -0.0264,-0.108159 -0.0114,-0.03545 -0.0256,-0.0705 -0.0424,-0.104575 -0.0167,-0.03408 -0.0356,-0.06748 -0.0574,-0.100015 -0.0217,-0.03254 -0.0464,-0.06399 -0.0729,-0.0948 -0.0265,-0.03081 -0.0549,-0.06101 -0.0858,-0.08991 -0.0309,-0.02891 -0.0641,-0.05658 -0.0992,-0.0834 -0.0351,-0.02682 -0.0721,-0.05265 -0.11111,-0.07721 -0.039,-0.02456 -0.0799,-0.04792 -0.12247,-0.07004 -0.0426,-0.02212 -0.087,-0.04305 -0.13281,-0.06255 -0.0459,-0.0195 -0.0932,-0.03771 -0.14211,-0.05441 -0.0489,-0.01669 -0.0993,-0.03189 -0.15089,-0.04561 -0.0516,-0.01372 -0.10459,-0.02593 -0.15865,-0.03649 -0.0541,-0.01056 -0.10914,-0.0195 -0.16537,-0.02671 -0.0562,-0.0072 -0.11345,-0.01259 -0.17156,-0.01629 -0.0581,-0.0037 -0.11703,-0.0055 -0.17674,-0.0055 z"
         style="display:inline;fill:none;stroke:#ffffff;stroke-width:1.85208;stroke-dasharray:none;stroke-opacity:1"
         id="path98" /><rect
         style="display:inline;fill:#ffffff;fill-opacity:1;stroke:none;stroke-width:0.660436;stroke-dasharray:none;stroke-opacity:1"
         id="rect2"
         width="3.964155"
         height="5.9951572"
         x="206.44444"
         y="-16.073433"
         ry="0.94997054" /><rect
         style="display:inline;fill:#ffffff;fill-opacity:1;stroke:none;stroke-width:0.660436;stroke-dasharray:none;stroke-opacity:1"
         id="rect5"
         width="3.964155"
         height="5.9951582"
         x="198.51614"
         y="-16.073433"
         ry="0.94997072" /></g></g><style
     id="style1">.st0{fill:#575757}</style></svg>
