<?xml version="1.0" encoding="UTF-8" standalone="no"?>
<svg
   width="15.926247"
   height="12.499999"
   id="Layer_1"
   viewBox="0 0 15.926247 12.499999"
   version="1.1"
   sodipodi:docname="views-gray.svg"
   xmlns:inkscape="http://www.inkscape.org/namespaces/inkscape"
   xmlns:sodipodi="http://sodipodi.sourceforge.net/DTD/sodipodi-0.dtd"
   xmlns="http://www.w3.org/2000/svg"
   xmlns:svg="http://www.w3.org/2000/svg">
  <defs
     id="defs1" />
  <sodipodi:namedview
     id="namedview1"
     pagecolor="#ffffff"
     bordercolor="#000000"
     borderopacity="0.25"
     inkscape:showpageshadow="2"
     inkscape:pageopacity="0.0"
     inkscape:pagecheckerboard="0"
     inkscape:deskcolor="#d1d1d1" />
  <style
     id="style1">.st0{fill:#575757}</style>
  <g
     id="views-gray_00000142863366358815447650000010738254069274213278_"
     transform="translate(-2.0368764,-3.8)">
    <g
       id="views_00000127742387757798344080000005698693185098196616_"
       transform="translate(2,3.8)">
      <path
         id="Combined-Shape_00000103235703839151643790000017400590354981511084_"
         class="st0"
         d="m 15.4,4.4 c 0.7,1 0.8,2.7 0,3.7 0,0 -2.3,4.4 -7.4,4.4 C 2.9,12.5 0.6,8.2 0.6,8.2 -0.1,7.2 -0.2,5.5 0.6,4.5 0.6,4.4 2.9,0 8,0 c 5.1,0 7.4,4.4 7.4,4.4 z M 8,10.9 c 2.5,0 4.6,-2 4.6,-4.6 0,-2.6 -2,-4.6 -4.6,-4.6 -2.6,0 -4.6,2 -4.6,4.6 0,2.6 2.1,4.6 4.6,4.6 z"
         style="fill:#0fca7f;fill-opacity:1" />
      <circle
         id="Oval_00000090263241961712918110000010337424226369138089_"
         class="st0"
         cx="7.9000001"
         cy="6.3000002"
         r="2.3"
         style="fill:#0fca7f;fill-opacity:1" />
    </g>
  </g>
</svg>
