<?xml version="1.0" encoding="UTF-8" standalone="no"?>
<!-- Created with Inkscape (http://www.inkscape.org/) -->

<svg
   width="89.598328"
   height="89.598289"
   viewBox="0 0 23.706223 23.706214"
   version="1.1"
   id="svg1"
   inkscape:version="1.3 (0e150ed6c4, 2023-07-21)"
   sodipodi:docname="advertisement.svg"
   xml:space="preserve"
   inkscape:export-filename="studio.png"
   inkscape:export-xdpi="50"
   inkscape:export-ydpi="50"
   xmlns:inkscape="http://www.inkscape.org/namespaces/inkscape"
   xmlns:sodipodi="http://sodipodi.sourceforge.net/DTD/sodipodi-0.dtd"
   xmlns="http://www.w3.org/2000/svg"
   xmlns:svg="http://www.w3.org/2000/svg"><sodipodi:namedview
     id="namedview1"
     pagecolor="#ffffff"
     bordercolor="#000000"
     borderopacity="0.25"
     inkscape:showpageshadow="2"
     inkscape:pageopacity="0.0"
     inkscape:pagecheckerboard="0"
     inkscape:deskcolor="#d1d1d1"
     inkscape:document-units="mm"
     inkscape:zoom="0.18856181"
     inkscape:cx="259.86173"
     inkscape:cy="225.39028"
     inkscape:window-width="1024"
     inkscape:window-height="577"
     inkscape:window-x="-8"
     inkscape:window-y="-8"
     inkscape:window-maximized="1"
     inkscape:current-layer="layer1"
     showgrid="false" /><defs
     id="defs1" /><g
     inkscape:label="Capa 1"
     inkscape:groupmode="layer"
     id="layer1"
     transform="translate(-192.5705,26.937128)"><g
       id="views_00000127742387757798344080000005698693185098196616_"
       transform="matrix(1.2382636,0,0,1.5776712,196.51016,-22.951803)"
       style="display:inline"
       inkscape:label="Más vistas"><path
         id="Combined-Shape_00000103235703839151643790000017400590354981511084_"
         class="st0"
         d="m 15.4,4.4 c 0.7,1 0.8,2.7 0,3.7 0,0 -2.3,4.4 -7.4,4.4 C 2.9,12.5 0.6,8.2 0.6,8.2 -0.1,7.2 -0.2,5.5 0.6,4.5 0.6,4.4 2.9,0 8,0 c 5.1,0 7.4,4.4 7.4,4.4 z M 8,10.9 c 2.5,0 4.6,-2 4.6,-4.6 0,-2.6 -2,-4.6 -4.6,-4.6 -2.6,0 -4.6,2 -4.6,4.6 0,2.6 2.1,4.6 4.6,4.6 z"
         style="fill:#ffffff;fill-opacity:1" /><circle
         id="Oval_00000090263241961712918110000010337424226369138089_"
         class="st0"
         cx="7.9000001"
         cy="6.3000002"
         r="2.3"
         style="fill:#ffffff;fill-opacity:1" /><text
         xml:space="preserve"
         style="font-style:italic;font-weight:bold;font-size:11.7581px;font-family:'Liberation Sans';-inkscape-font-specification:'Liberation Sans Bold Italic';fill:#ffffff;fill-opacity:1;stroke:none;stroke-width:1.10233;stroke-dasharray:none;stroke-opacity:1"
         x="-3.3242676"
         y="4.1564879"
         id="text96"
         transform="scale(1.1287602,0.88592776)"><tspan
           sodipodi:role="line"
           id="tspan96"
           style="font-style:normal;font-variant:normal;font-weight:bold;font-stretch:normal;font-size:11.7581px;font-family:Sans;-inkscape-font-specification:'Sans Bold';stroke-width:1.10233"
           x="-3.3242676"
           y="4.1564879">+</tspan></text></g></g><style
     id="style1">.st0{fill:#575757}</style></svg>
