<?xml version="1.0" encoding="UTF-8" standalone="no"?>
<svg
   width="8.0977077"
   height="7.4058847"
   fill="currentColor"
   class="bi bi-caret-down-fill"
   viewBox="0 0 8.0977081 7.4058848"
   version="1.1"
   id="svg1"
   sodipodi:docname="hamburger.svg"
   inkscape:export-filename="arrow.svg"
   inkscape:export-xdpi="96"
   inkscape:export-ydpi="96"
   inkscape:version="1.3 (0e150ed6c4, 2023-07-21)"
   xml:space="preserve"
   xmlns:inkscape="http://www.inkscape.org/namespaces/inkscape"
   xmlns:sodipodi="http://sodipodi.sourceforge.net/DTD/sodipodi-0.dtd"
   xmlns="http://www.w3.org/2000/svg"
   xmlns:svg="http://www.w3.org/2000/svg"><defs
     id="defs1" /><sodipodi:namedview
     id="namedview1"
     pagecolor="#ffffff"
     bordercolor="#000000"
     borderopacity="0.25"
     inkscape:showpageshadow="2"
     inkscape:pageopacity="0.0"
     inkscape:pagecheckerboard="0"
     inkscape:deskcolor="#d1d1d1"
     inkscape:zoom="11.313709"
     inkscape:cx="4.5519999"
     inkscape:cy="14.009553"
     inkscape:window-width="1024"
     inkscape:window-height="577"
     inkscape:window-x="-8"
     inkscape:window-y="-8"
     inkscape:window-maximized="1"
     inkscape:current-layer="svg1" /><g
     style="fill:currentColor;stroke:#ffffff;stroke-opacity:1"
     id="g1"
     transform="matrix(1.0098263,0,0,0.92355243,-4.0297568,-3.6854772)"><path
       d="m 4.646,4.646 a 0.5,0.5 0 0 1 0.708,0 L 8,7.293 10.646,4.646 a 0.5006316,0.5006316 0 0 1 0.708,0.708 L 8.707,8 l 2.647,2.646 a 0.5006316,0.5006316 0 0 1 -0.708,0.708 L 8,8.707 5.354,11.354 A 0.5006316,0.5006316 0 0 1 4.646,10.646 L 7.293,8 4.646,5.354 a 0.5,0.5 0 0 1 0,-0.708"
       id="path1"
       style="fill:#ffffff;fill-opacity:1;stroke:#ffffff;stroke-opacity:1" /></g></svg>
